<svg xmlns="http://www.w3.org/2000/svg" width="24" height="24" viewBox="0 0 24 24" fill="none">
  <path d="M12 10.5214C11.59 10.5214 11.25 10.1814 11.25 9.77141V6.44141C11.25 6.03141 11.59 5.69141 12 5.69141C12.41 5.69141 12.75 6.03141 12.75 6.44141V9.77141C12.75 10.1914 12.41 10.5214 12 10.5214Z" fill="#FFFFFF"/>
  <path d="M12.0208 20.3483C9.44084 20.3483 6.87084 19.9383 4.42084 19.1183C3.51084 18.8183 2.82084 18.1683 2.52084 17.3483C2.22084 16.5283 2.32084 15.5883 2.81084 14.7683L4.08084 12.6483C4.36084 12.1783 4.61084 11.2983 4.61084 10.7483V8.64828C4.61084 4.55828 7.93084 1.23828 12.0208 1.23828C16.1108 1.23828 19.4308 4.55828 19.4308 8.64828V10.7483C19.4308 11.2883 19.6808 12.1783 19.9608 12.6483L21.2308 14.7683C21.7008 15.5483 21.7808 16.4783 21.4708 17.3283C21.1608 18.1783 20.4808 18.8283 19.6208 19.1183C17.1708 19.9483 14.6008 20.3483 12.0208 20.3483Z" fill="#061023"/>
  <path d="M11.9999 22.9003C10.9299 22.9003 9.87992 22.4603 9.11992 21.7003C8.35992 20.9403 7.91992 19.8903 7.91992 18.8203H9.41992C9.41992 19.5003 9.69992 20.1603 10.1799 20.6403C10.6599 21.1203 11.3199 21.4003 11.9999 21.4003C13.4199 21.4003 14.5799 20.2403 14.5799 18.8203H16.0799C16.0799 21.0703 14.2499 22.9003 11.9999 22.9003Z" fill="#061023"/>
</svg>
